<?xml version="1.0" standalone="yes"?>
<svg xmlns="http://www.w3.org/2000/svg" width="1286" height="180">
<path style="fill:#ffffff; stroke:none;" d="M0 0L0 180L71 180L71 179L63 176L59 166C42.928 169.117 40.7355 163.299 28 156L29 154C24.2477 148.536 25.3855 140.557 27 134C18.742 130.538 13.0383 123.946 11.1366 115C10.063 109.95 15.3771 103.138 9 101C8.36331 96.8319 5.05792 93.1495 3.67438 89C0.0809214 78.2224 2.52737 66.7445 11 59C6.34519 41.4135 13.5156 19.6469 36 25C38.2186 12.563 50.3243 5.74594 62 10C73.8443 -2.86864 88.912 4.75218 93 20C102.872 19.9651 106.089 13.3658 110 5C127.042 14.0703 143.302 24.7333 160 34.4244C163.586 36.5055 175.606 41.3093 175.553 46.1042C175.513 49.7432 171.256 54.1106 169.333 57C164.111 64.8475 158.582 72.7693 154 81L186 103L186 104C169.251 118.636 156.113 140.609 142.2 158C138.825 162.219 131.495 175.578 125.91 176.369C122.035 176.918 116.655 170.182 114 167.845C106.779 161.488 102.6 159 93 159C91.6359 169.13 88.0097 174.266 79 179L79 180L1286 180L1286 144L1201 144L1201 36L1280 36L1280 57L1225 57L1225 80L1274 80L1274 102L1225 102L1225 124L1286 124L1286 0L0 0z"/>
<path style="fill:#f6713b; stroke:none;" d="M62 10C41.4508 0.111023 34.4981 28.1166 40.6034 42.8256C41.9199 45.9974 45.3369 46.9664 47.4005 49.4591C49.0861 51.4954 50.5362 63.678 55.4082 60.8241C58.6461 58.9273 54.9572 51.2276 56.3542 48.0147C58.4807 43.1235 62.0787 41.8352 61 36C57.0479 36.7974 51.8632 42.4515 48.054 40.9398C33.3962 35.1229 44.8987 11.7704 59 15C57.7705 20.2379 58.0608 23.5373 64 24C64.9336 13.6088 70.4622 8.07388 81 10L81 3C73.5455 3 66.3824 3.00687 62 10z"/>
<path style="fill:#fba540; stroke:none;" d="M81 4C81.0983 12.3749 87.2389 18.2427 86.9568 27C86.7028 34.8844 87.3952 44.5017 85.7762 52.1698C84.7718 56.9271 80.844 61.0129 81.1775 66C81.4628 70.2673 84.5874 73.8372 85.5455 77.9853C87.1362 84.8722 86.8288 93.0466 86.1698 100C85.4861 107.214 89.6996 128.11 81 131L81 140C93.3947 150.224 81.3789 166.284 81 178C89.6305 174.806 92.291 167.68 93 159C103.142 159.001 107.489 163.091 115 169.576C117.642 171.858 122.009 177.574 125.91 177.079C131.643 176.351 138.784 163.27 142.2 159C156.841 140.699 171.293 122.246 186 104L186 103L154 81L170.667 56L176.119 45.2099L160 33.8503L110 5C105.145 12.3377 102.822 19.884 93 20C91.7173 12.4586 88.3324 6.84103 81 4z"/>
<path style="fill:#ffffff; stroke:none;" d="M64 24C58.4631 23.1169 58.1267 20.0195 59 15C49.4377 12.201 41.8604 19.3837 41.3843 29C41.1727 33.2734 44.0558 41.2547 49.0185 41.9398C52.9346 42.4805 57.2795 37.2644 61 36C61.3937 41.2564 58.424 42.6619 56.3179 47.0394C54.7541 50.2896 58.0905 58.2033 55.3719 60.0787C52.3078 62.1925 50.0586 55.8704 49.5139 54.0046C47.5452 47.261 41.6916 45.7827 38.2284 39.9853C36.7241 37.4671 36.7535 33.0067 34.4005 31.179C20.7576 20.5823 14.9489 44.6759 16 53C29.5642 50.7034 30.1638 54.6464 41.2855 60.9722C45.7591 63.5167 49.3004 61.6474 52 67C48.0452 67.7346 42.5676 67.3927 39.5725 70.4336C37.5734 72.4633 37.4986 77.4747 34.7415 78.5031C27.9086 81.0518 34.3384 67.6456 36 66C31.5881 56.7617 14.9596 55.0927 13 67C2.587 73.365 9.24068 92.6973 17.0154 98.5008C22.1018 102.298 27.989 102 34 102C37.6004 82.1924 44.9802 110.949 41.5772 112.824C38.5106 114.513 35.9776 109.649 33.625 108.603C29.4048 106.726 22.6825 107.07 18 106C16.7019 113.017 18.1876 127.018 28.0802 127.574C31.528 127.768 34.3541 123.676 37.0039 121.968C45.1105 116.743 50.1227 117.05 54.686 107.424C57.7344 100.994 51.5084 91.8558 61 89C61 96.3085 60.0946 103.976 65.5293 109.772C67.1414 111.491 76.2114 114.191 74.0787 117.412C71.0805 121.941 61.3039 114.094 58 113C54.2154 119.756 54.2153 126.244 58 133C62.9759 131.331 67.573 128.599 73 128.908C75.898 129.073 80.8441 132.064 83.4113 130.184C87.2612 127.363 86 118.096 86 114C86 99.5699 89.9574 81.92 82 69C79.648 69.7761 76.5703 70.3949 75.0131 72.51C73.3157 74.8156 73.6011 81.5154 69.5185 81.5154C65.5729 81.5154 68.316 73.0072 68.2168 71C67.9933 66.476 63.2871 64.8515 62.6304 60.9823C61.5361 54.535 72.0175 64.1232 73 66C88.9042 60.5704 84.679 49.1386 85.9082 36C86.6006 28.5988 89.0445 18.7707 83.348 12.5332C73.9852 2.28119 64.4404 14.4832 64 24z"/>
<path style="fill:#f25438; stroke:none;" d="M39 15L36 25C14.1243 18.5339 4.6414 41.585 11 59C-0.245979 61.2492 1.21047 83.6314 4 92C5.28272 95.8482 9.47021 99.1192 9 101C14.4182 104.158 9.94213 108.954 10.6111 114C11.8528 123.365 18.0053 131.403 27 134C25.1871 139.733 23.5451 149.848 29 154L28 156L40 166L32.4599 143L40 120C36.3143 121.622 32.6329 126.403 28.9198 127.12C19.0118 129.032 17.2788 111.834 18 106L32.7909 108.603L40 114L40 94C35.4062 94.7903 34.452 97.6305 34 102C17.9858 101.998 -3.41294 82.1544 13 67C16.2742 54.8797 30.3655 58.1893 36 66C31.8373 68.7293 29.8598 82.5569 35.4205 78.7623C43.0965 73.5243 40.5913 58.1515 33.9954 53.7029C28.1706 49.7745 22.2259 51.3528 16 53C15.3664 44.9038 20.1465 22.2348 33.6829 31.179C36.7374 33.1973 37.4748 39.7317 39 43L40 43L39 15z"/>
<path style="fill:#ffffff; stroke:none;" d="M93 45L94 45C107.093 30.1656 114.297 61.3024 98.716 56.6821C96.3171 55.9708 94.1264 54.269 92 53L90 63C93.5877 64.3816 97.0811 65.92 101 65.9198C104.168 65.9195 107.351 65.0934 109.985 63.2971C118.911 57.2083 119.949 43.6113 111.815 36.3935C108.049 33.0523 97.9098 29.3226 94.0278 34.564C92.1271 37.1303 93 41.9867 93 45z"/>
<path style="fill:#010101; stroke:none;" d="M225 108C225.632 138.622 255.776 151.405 283 146.195C298.29 143.269 312.543 135.597 315.535 119C320.776 89.9351 294.043 83.0456 272 77.3704C264.56 75.4548 247.827 71.2297 254.293 60.0941C259.327 51.4243 274.599 51.4095 281.985 56.6528C285.541 59.1777 287.129 64.2749 291.133 65.9676C297.209 68.5368 306.446 68.8647 313 69C311.294 59.842 310.269 50.9963 302.907 44.3256C283.721 26.9419 238.887 29.6608 230.094 57C228.847 60.8781 228.91 64.9664 229.015 69C229.613 91.9738 254.575 95.7588 272 100.71C278.338 102.511 286.38 104.112 290.258 110.043C294.191 116.059 289.672 122.68 283.999 125.428C275.863 129.371 263.353 128.875 256.043 123.362C252.132 120.412 251.279 114.825 247.502 112.175C242.301 108.526 231.217 108.786 225 108M1201 36L1201 144L1286 144L1286 124L1225 124L1225 102L1274 102L1274 80L1225 80L1225 57L1280 57L1280 36L1201 36M329 37L329 92C329 104.195 328.116 116.818 333.985 128C348.414 155.488 400.518 153.375 415.525 128C421.77 117.44 421 104.78 421 93L421 37L397 37L397 86C397 94.9396 398.135 105.441 395.03 114C390.057 127.707 367.806 130.736 358.39 119.895C352.021 112.562 353 102.01 353 93L353 37L329 37M443 37L443 144L466 144L466 72L467 72L482.247 104L489.39 115.972L509 117L530 72L531 72L531 144L554 144L554 37L523.213 37.6034L515.753 49L499 83L481.309 50L473.61 37.6034L443 37M579 37L579 144L602 144L602 72L603 72L618.247 104L625.39 115.972L643.61 116.397L650.258 105L666 72L667 72L667 144L690 144L690 37L659.213 37.6034L651.753 49L635 83L616.861 49L609.61 37.6034L579 37M702 144C707.542 144 720.847 146.448 725.034 142.397C730.35 137.253 730.015 124.735 737.213 121.603C741.028 119.944 746.916 121 751 121C761.635 121 772.375 120.557 782.999 121.019C794.214 121.507 792.327 136.119 798.815 142.397C803.127 146.569 817.276 144 823 144C815.109 116.598 799.335 88.841 787.22 63C784.554 57.3125 780.104 39.2263 773.775 37.3179C769.251 35.9534 753.454 35.1884 749.969 38.6034C743.161 45.2754 739.658 60.3364 735.691 69C724.629 93.16 709.346 118.501 702 144M833 37L833 145L858 145L858 106C878.303 106.002 881.118 132.092 894.749 143.397C900.504 148.169 917.72 145 925 145L896 104C924.121 98.9841 926.98 57.5862 906 42.6381C897.832 36.8186 887.546 37 878 37L833 37z"/>
<path style="fill:#f6713b; stroke:none;" d="M964 121L998 121L998 98L975 98L993 59L997 70L998 70L998 37C993.258 37 985.736 35.5592 981.39 37.6034C976.385 39.9577 973.083 51.1822 971 56C961.848 77.1674 964 98.1632 964 121z"/>
<path style="fill:#fba540; stroke:none;" d="M998 37L998.529 72L1009 98L998 98L998 121C1003.39 121 1011.8 119.397 1016.78 121.603C1022.24 124.028 1026.43 138.546 1028 144L1052 144C1044.26 115.69 1027.41 87.6907 1015.23 61C1011.48 52.772 1008.51 37.3442 998 37M1063 37L1063 144L1087 144L1087 37L1063 37z"/>
<path style="fill:#010101; stroke:none;" d="M1104 37L1104 57L1156 57L1117.08 104L1100.74 125L1100 144L1191 144L1191 124L1133 124L1171.59 78L1189.14 56L1190 37L1104 37z"/>
<path style="fill:#fba540; stroke:none;" d="M181 55L167 79L188 93C187.578 83.1661 186.998 62.7964 181 55z"/>
<path style="fill:#ffffff; stroke:none;" d="M858 56L858 87C867.312 87 880.456 89.2615 888.907 84.5471C898.683 79.0928 897.84 62.3362 887.996 57.5725C879.843 53.627 866.876 56 858 56z"/>
<path style="fill:#f6713b; stroke:none;" d="M81 70L81 63L73 66C72.1738 63.5916 63.1372 53.294 61.9213 60.2292C61.3914 63.2516 66.385 66.2188 67.5116 68.8341C68.9377 72.1448 66.907 75.508 67.2377 78.8873C67.3887 80.4309 68.1625 82.1059 70.0147 81.8241C74.95 81.0732 74.3899 71.7461 81 70z"/>
<path style="fill:#ffffff; stroke:none;" d="M763 59L746 98L780 98L763 59M992 59L975 98L1009 98C1005.85 86.4888 1000 67.8621 992 59z"/>
<path style="fill:#f6713b; stroke:none;" d="M40 61L40 69L52 67C50.2484 61.2301 45.0647 62.2064 40 61z"/>
<path style="fill:#ffffff; stroke:none;" d="M93 80L93 99C97.4155 99 102.795 98.1906 107 99.7384C114.8 102.61 119.963 108.755 128.996 104.583C144.126 97.5945 140.715 74.5444 124 72.5571C116.28 71.6392 112.515 77.0868 106 79.4005C102.113 80.781 97.0744 80 93 80z"/>
<path style="fill:#f25438; stroke:none;" d="M963 73C954.136 95.8471 936.289 119.941 932 144C937.449 144 948.783 146.17 953.363 142.972C967.761 132.92 964 105.69 964 91C964 85.3809 965.189 78.2165 963 73z"/>
<path style="fill:#fba540; stroke:none;" d="M119.019 81.7461C109.478 85.4167 115.067 100.634 124.957 96.8364C135.021 92.9722 128.836 77.9697 119.019 81.7461z"/>
<path style="fill:#f6713b; stroke:none;" d="M40 126L49 124C49.1096 128.66 50.6464 131.722 52.216 136C53.9214 140.648 48.8988 147.461 52.027 151.377C53.7834 153.576 56.0928 151.732 56.983 149.851C62.4018 138.402 67.624 131.277 81 138C80.8349 124.064 66.4758 128.974 58 133C54.8498 125.268 54.8498 120.732 58 113C59.6066 113.796 76.3767 123.635 75.0787 115.999C74.5377 112.817 67.6503 111.343 65.5293 108.891C60.4608 103.033 61 96.2321 61 89C57.7681 89.5346 56.077 90.5904 55.3441 94.0193C53.5711 102.315 55.0931 107.279 49.7901 114.853C45.9701 120.309 40.2676 117.845 40 126M40 94L40 99L41 99L40 94M40 106L40 114C44.9124 112.352 43.1656 108.803 40 106z"/>
<path style="fill:#ffffff; stroke:none;" d="M93 114L93 123C103.579 121.586 109.996 135.933 97.9961 138.381C94.3691 139.121 91.1207 136.392 88 135C88.7362 137.966 90.0847 144.037 92.5988 145.972C97.623 149.839 107.011 145.223 110.03 140.906C116.002 132.366 113.515 120.239 103.999 115.457C100.579 113.738 96.7149 114.002 93 114M68 153C67.1679 158.282 61.204 163.587 67 168C68.3453 174.848 78.2765 174.871 82.6968 170.581C88.5472 164.904 88.3213 143.998 81 140L82 138C75.0489 134.506 65.9755 132.825 60.652 140.044C58.8409 142.5 57.6728 151.793 54.0046 151.793C51.5839 151.793 51.3494 148.728 51.5262 146.995C51.836 143.96 53.6962 141.109 53.2924 138C52.6485 133.042 49.2729 129.26 49 124C32.7425 125.43 25.4029 149.325 40.0934 158.606C52.0437 166.155 57.6848 153.232 68 153z"/>
<path style="fill:#f6713b; stroke:none;" d="M40 159L40 167L59 166L63 176C70.3648 178.511 80.6044 184.147 81 172C75.9748 173.548 68.9993 174.092 67 168C62.3149 162.581 67.5398 158.903 68 153L54.9853 159.351L40 159z"/>
</svg>
